<?xml version="1.0" encoding="UTF-8"?>
<svg id="Layer_1" data-name="Layer 1" xmlns="http://www.w3.org/2000/svg" viewBox="0 0 593.37 593.37">
  <defs>
    <style>
      .cls-1 {
        fill: #f1f68a;
      }

      .cls-2 {
        fill: #032d25;
      }
    </style>
  </defs>
  <rect class="cls-1" y="0" width="593.37" height="593.37"/>
  <g>
    <path class="cls-2" d="M472.45,312.7c-.38,4.81-1.85,9.44-4.43,13.76-2.58,4.43-6.2,8.36-10.84,11.85-4.77,4.25-9.27,8.29-13.59,12.23-4.29,3.94-8.4,7.74-12.34,11.43-3.94,3.69-7.74,7.32-11.43,10.84-3.73,3.55-7.35,7.04-10.94,10.49-3.59,3.48-7.14,6.93-10.73,10.42-3.59,3.52-7.21,7.07-10.94,10.7-3.69,3.66-7.49,7.39-11.43,11.29l-12.34,12.16c-4.29,4.25-8.78,8.75-13.42,13.35l-.91.73c-4.36,3.59-9.24,6.34-14.5,8.22-8.88,3.21-18.64,3.59-27.14,1.22-2.96-.84-5.85-2.02-8.61-3.52-4.43-2.44-8.12-5.64-10.94-9.48-2.72-3.73-4.5-7.91-5.26-12.4-.8-4.6-.49-9.37.87-14.22l20.94-74.29c5.99-.35,11.05-.66,15.78-.94,5.09-.31,9.79-.56,14.88-.84,4.43-.24,9.13-.49,14.6-.77l-18.26,65.89,4.67-4.7c4.67-4.67,9.02-9.06,13.14-13.21,4.08-4.11,7.94-8.01,11.67-11.67l21.36-21.05c3.55-3.45,7.11-6.93,10.84-10.56,3.73-3.62,7.6-7.35,11.67-11.29,4.11-3.94,8.47-8.08,13.14-12.51l3.07-2.89-4.22-.1c-5.85-.14-11.22-.21-16.27-.24-5.05-.03-9.76,0-14.32.03-4.53.03-8.92.14-13.31.21-4.39.1-8.78.24-13.31.38-4.56.14-9.27.38-14.32.63-5.02.28-10.38.56-16.24.91-6.52.38-12.2.73-17.46,1.08l-30.07,1.92c-5.3.31-10.98.7-17.46,1.05-6.1.38-11.74.7-17.11.94-5.33.28-10.35.52-15.19.66-4.84.14-9.51.28-14.08.35-4.6.1-9.13.17-13.73.21-4.6.03-9.27.03-14.11,0-4.84-.07-9.86-.14-15.19-.28-5.33-.14-10.98-.35-17.04-.66-5.26-.28-10.28-1.46-14.88-3.48-4.5-1.99-8.5-4.74-11.85-8.19-3.38-3.48-5.99-7.49-7.73-11.95-1.92-4.88-2.68-9.86-2.3-14.77.38-4.81,1.88-9.44,4.43-13.76,2.61-4.39,6.2-8.33,10.87-11.85,4.77-4.22,9.27-8.29,13.59-12.23,4.29-3.94,8.36-7.74,12.34-11.43,3.94-3.69,7.74-7.28,11.43-10.84,3.73-3.52,7.35-7,10.94-10.49,3.59-3.45,7.14-6.93,10.73-10.42,3.59-3.48,7.21-7.04,10.91-10.7,3.73-3.62,7.49-7.35,11.46-11.26l12.3-12.2c4.32-4.25,8.82-8.71,13.42-13.31l.91-.73c3.69-3.03,7.77-5.47,12.09-7.32,4.22-1.74,8.61-2.93,13.07-3.41,4.39-.49,8.78-.35,13.03.45,4.32.84,8.36,2.27,12.09,4.36,4.46,2.44,8.12,5.64,10.94,9.44,2.72,3.73,4.5,7.91,5.26,12.4.8,4.6.49,9.41-.87,14.22l-21.4,75.86c-5.96.35-11.05.66-15.78.94-5.09.31-9.79.56-14.84.84-4.43.24-9.16.49-14.64.77l18.71-67.46-4.67,4.7c-4.7,4.7-9.03,9.06-13.14,13.21l-.52.56c-3.9,3.9-7.6,7.63-11.15,11.15l-21.36,21.01c-3.55,3.45-7.11,6.93-10.84,10.56-3.73,3.62-7.56,7.35-11.67,11.32-4.11,3.94-8.43,8.08-13.1,12.47l-3.07,2.93,4.22.1c5.85.14,11.22.21,16.24.21,5.05.03,9.76.03,14.32-.03,4.53-.03,8.92-.1,13.31-.21,4.39-.1,8.78-.21,13.31-.35,4.56-.17,9.27-.38,14.32-.66,5.02-.24,10.38-.56,16.24-.87,6.48-.38,12.2-.77,17.46-1.08l30.07-1.92c5.26-.35,10.94-.7,17.46-1.08,6.1-.35,11.74-.66,17.07-.94,5.33-.28,10.38-.49,15.23-.66,4.84-.14,9.48-.24,14.08-.35,4.6-.1,9.13-.14,13.73-.17,4.6-.03,9.23-.03,14.08,0,4.84.03,9.86.1,15.23.28,5.33.14,10.98.35,17.04.66,5.26.28,10.28,1.43,14.88,3.48,4.5,1.99,8.5,4.74,11.85,8.19,3.38,3.45,5.96,7.46,7.74,11.95,1.92,4.88,2.68,9.83,2.26,14.74Z"/>
    <path class="cls-2" d="M389.24,197.01l-12.27,41.99c-1.32,4.63-2.75,9.58-4.39,15.23-5.96.1-11.01.21-15.75.35-3.94.1-7.67.31-11.53.52l-3.38.17c-4.43.24-9.13.49-14.6.8l16.66-58.57h.52c5.71-.21,10.59-.35,15.19-.38,5.09-.07,9.79-.07,14.84-.1,4.46-.03,9.2-.03,14.7,0Z"/>
    <path class="cls-2" d="M265.54,339.81l-14.91,50.87c-1.32,4.53-2.79,9.34-4.39,14.77-5.96.17-11.01.24-15.75.28-5.05.03-9.76.03-14.84.07-4.43,0-9.17,0-14.67-.03l19.27-64.15c5.85-.1,10.84-.21,15.47-.35,4.04-.1,7.81-.28,11.74-.49l2.89-.17c4.6-.21,9.44-.49,15.19-.8Z"/>
  </g>
</svg>